/* XPM */
static const char * addBlock_xpm[] = {
"32 32 124 2",
"  	c #FFFFFF",
". 	c #FEFEFE",
"+ 	c #FAFAFA",
"@ 	c #F5F5F5",
"# 	c #F7F7F7",
"$ 	c #DADADA",
"% 	c #BABABA",
"& 	c #DBDBDB",
"* 	c #E6E6E6",
"= 	c #929292",
"- 	c #474747",
"; 	c #939393",
"> 	c #FDFDFD",
", 	c #F9F9F9",
"' 	c #D4D4D4",
") 	c #5C5C5C",
"! 	c #090909",
"~ 	c #D5D5D5",
"{ 	c #F8F8F8",
"] 	c #F4F4F4",
"^ 	c #B4B4B4",
"/ 	c #4B4B4B",
"( 	c #070707",
"_ 	c #B9B9B9",
": 	c #FBFBFB",
"< 	c #FCFCFC",
"[ 	c #F6F6F6",
"} 	c #969696",
"| 	c #5B5B5B",
"1 	c #626262",
"2 	c #4F4F4F",
"3 	c #202020",
"4 	c #020202",
"5 	c #515151",
"6 	c #707070",
"7 	c #898989",
"8 	c #ABABAB",
"9 	c #060606",
"0 	c #121212",
"a 	c #141414",
"b 	c #1A1A1A",
"c 	c #131313",
"d 	c #1F1F1F",
"e 	c #2F2F2F",
"f 	c #3F3F3F",
"g 	c #404040",
"h 	c #EBEBEB",
"i 	c #5F5F5F",
"j 	c #2A2A2A",
"k 	c #101010",
"l 	c #000000",
"m 	c #0D0D0D",
"n 	c #1D1D1D",
"o 	c #4D4D4D",
"p 	c #E3E3E3",
"q 	c #ECECEC",
"r 	c #C3C3C3",
"s 	c #383838",
"t 	c #F3F3F3",
"u 	c #787878",
"v 	c #686868",
"w 	c #535353",
"x 	c #212121",
"y 	c #525252",
"z 	c #696969",
"A 	c #A1A1A1",
"B 	c #454545",
"C 	c #282828",
"D 	c #323232",
"E 	c #DFDFDF",
"F 	c #D9D9D9",
"G 	c #D8D8D8",
"H 	c #B5B5B5",
"I 	c #D7D7D7",
"J 	c #EAEAEA",
"K 	c #191919",
"L 	c #181818",
"M 	c #676767",
"N 	c #0F0F0F",
"O 	c #444444",
"P 	c #2E2E2E",
"Q 	c #E2E2E2",
"R 	c #7F7F7F",
"S 	c #1E1E1E",
"T 	c #353535",
"U 	c #333333",
"V 	c #E8E8E8",
"W 	c #C8C8C8",
"X 	c #979797",
"Y 	c #414141",
"Z 	c #D2D2D2",
"` 	c #F1F1F1",
" .	c #242424",
"..	c #0A0A0A",
"+.	c #EEEEEE",
"@.	c #080808",
"#.	c #0E0E0E",
"$.	c #0C0C0C",
"%.	c #010101",
"&.	c #030303",
"*.	c #1C1C1C",
"=.	c #3E3E3E",
"-.	c #EDEDED",
";.	c #232323",
">.	c #F2F2F2",
",.	c #F0F0F0",
"'.	c #393939",
").	c #2B2B2B",
"!.	c #262626",
"~.	c #363636",
"{.	c #303030",
"].	c #313131",
"^.	c #2C2C2C",
"/.	c #343434",
"(.	c #EFEFEF",
"_.	c #424242",
":.	c #D1D1D1",
"<.	c #E5E5E5",
"[.	c #D3D3D3",
"}.	c #E4E4E4",
"|.	c #E7E7E7",
"1.	c #111111",
"2.	c #040404",
"3.	c #CFCFCF",
"                                                                ",
"                                                                ",
"                                                                ",
"              . + @ + .                                         ",
"              # $ % & #                                         ",
"              * = - ; *                                         ",
"      . > , , ' ) ! ) ~ .                                       ",
"      > { ] # ^ / ( / _ : + + . >         : < : : > < + , > , > ",
"    > [ } | 1 2 3 4 3 5 6 7 8 , >         : 9 0 a b c d e f g h ",
"    . + i j k ! 4 l 4 ! m a 1 , <       : n o p @ q q @ @ r s   ",
"    > t = u v w x 4 x y 1 z A @ >     > l B               C D   ",
"    . # E F G H y ! y H I F J . .   . ! / > >         < # K L   ",
"      . . > . F M N M F           < 4 O                 P G d   ",
"              Q R S R Q         < x T ,                 U V 3   ",
"              t W X W t       + C Y                   L Z `  .  ",
"              > @ q @ >       n ..                    0 V +.C   ",
"                              @.#.$.4 %.&.m *.*.=.K c j   -.n   ",
"                              ;.` V +.h h +.>.>.h ,.J '.  @ ).  ",
"                              d : >             < < +.!.  ,.s   ",
"                              @.@ >               > ] U   , ~.  ",
"                              L { .               : -.{.  ` ].  ",
"                              ^.+ .               : ` /.  ,.P   ",
"                              ^.< .               : (.T   ,.e   ",
"                              /.{ +               < (._.  -.].  ",
"                              =.] >               > J C   h b   ",
"                              /.] <               + p -   j :.  ",
"                              b ` >               + <.$.  a     ",
"                              C ] <               < <.b /.[.    ",
"                              L * J J }.}.<.|.V J (.& K @.      ",
"                              %.c L 1.2.2.9 N a *.*.@.9 3.      ",
"                                                                ",
"                                                                "};
